<?xml version="1.0" encoding="utf-8"?>
<svg viewBox="183.189 78.684 94.7 94.7" width="94.7" height="94.7" xmlns="http://www.w3.org/2000/svg">
  <path d="M 272.66 78.684 L 188.417 78.684 C 185.529 78.684 183.189 81.024 183.189 83.912 L 183.189 168.16 C 183.189 171.044 185.529 173.384 188.417 173.384 L 233.774 173.384 L 233.774 136.712 L 221.432 136.712 L 221.432 122.42 L 233.774 122.42 L 233.774 111.88 C 233.774 99.648 241.244 92.988 252.158 92.988 C 257.386 92.988 261.877 93.378 263.187 93.552 L 263.187 106.336 L 255.619 106.341 C 249.684 106.341 248.536 109.162 248.536 113.297 L 248.536 122.424 L 262.689 122.424 L 260.847 136.715 L 248.536 136.715 L 248.536 173.384 L 272.668 173.384 C 275.549 173.384 277.889 171.044 277.889 168.156 L 277.889 83.912 C 277.889 81.024 275.549 78.684 272.66 78.684 Z" style="fill: rgb(235, 235, 126);"/>
</svg>