<?xml version="1.0" encoding="utf-8"?>
<svg viewBox="166.159 90.737 118.802 118.802" width="118.802" height="118.802" xmlns="http://www.w3.org/2000/svg">
  <path d="M 225.56 90.737 C 192.756 90.737 166.159 117.334 166.159 150.137 C 166.159 182.942 192.756 209.539 225.56 209.539 C 258.364 209.539 284.961 182.942 284.961 150.137 C 284.961 117.334 258.364 90.737 225.56 90.737 Z M 230.51 170.22 L 230.51 155.087 L 245.331 155.087 C 245.038 160.746 244.281 166.176 243.073 171.319 C 239 170.725 234.787 170.388 230.51 170.22 Z M 240.198 180.922 C 237.727 187.506 234.46 193.282 230.51 198.029 L 230.51 180.11 C 233.807 180.249 237.039 180.511 240.198 180.922 Z M 230.51 145.187 L 230.51 130.263 C 234.807 130.095 239.029 129.753 243.123 129.154 C 244.301 134.238 245.049 139.604 245.331 145.187 L 230.51 145.187 Z M 230.51 120.368 L 230.51 102.246 C 234.5 107.042 237.791 112.888 240.267 119.551 C 237.089 119.967 233.832 120.23 230.51 120.368 Z M 243.89 104.196 C 250.014 106.651 255.542 110.275 260.175 114.819 C 256.998 115.978 253.686 117.007 250.182 117.823 C 248.479 112.913 246.345 108.369 243.89 104.196 Z M 208.046 171.319 C 206.839 166.176 206.076 160.746 205.79 155.087 L 220.61 155.087 L 220.61 170.22 C 216.328 170.388 212.125 170.725 208.046 171.319 Z M 220.61 180.11 L 220.61 198.029 C 216.66 193.282 213.393 187.506 210.923 180.922 C 214.081 180.511 217.313 180.249 220.61 180.11 Z M 205.79 145.187 C 206.072 139.604 206.814 134.238 207.997 129.154 C 212.091 129.753 216.313 130.095 220.61 130.263 L 220.61 145.187 L 205.79 145.187 Z M 210.858 119.551 C 213.334 112.888 216.625 107.042 220.61 102.246 L 220.61 120.368 C 217.289 120.23 214.031 119.967 210.858 119.551 Z M 200.934 117.819 C 197.429 117.002 194.117 115.972 190.944 114.814 C 195.582 110.27 201.107 106.647 207.23 104.191 C 204.775 108.369 202.641 112.913 200.934 117.819 Z M 198.216 127.313 C 196.909 133.011 196.068 138.995 195.78 145.187 L 176.312 145.187 C 177.129 136.981 179.97 129.362 184.316 122.823 C 188.672 124.61 193.306 126.139 198.216 127.313 Z M 198.26 173.16 C 193.37 174.329 188.757 175.843 184.415 177.615 C 180.01 171.042 177.133 163.364 176.312 155.087 L 195.786 155.087 C 196.073 161.349 196.929 167.403 198.26 173.16 Z M 200.998 182.649 C 202.691 187.481 204.799 191.961 207.22 196.074 C 201.166 193.648 195.706 190.08 191.103 185.605 C 194.251 184.471 197.533 183.451 200.998 182.649 Z M 250.122 182.649 C 253.587 183.457 256.865 184.466 260.018 185.605 C 255.409 190.075 249.949 193.648 243.895 196.079 C 246.316 191.961 248.424 187.481 250.122 182.649 Z M 252.859 173.16 C 254.196 167.403 255.048 161.349 255.339 155.087 L 274.813 155.087 C 273.986 163.364 271.111 171.042 266.705 177.615 C 262.364 175.843 257.745 174.329 252.859 173.16 Z M 255.339 145.187 C 255.053 138.995 254.206 133.011 252.904 127.313 C 257.815 126.139 262.453 124.61 266.809 122.823 C 271.15 129.362 273.991 136.981 274.808 145.187 L 255.339 145.187 Z" style="fill: rgb(235, 235, 126);"/>
</svg>