<?xml version="1.0" encoding="utf-8"?>
<svg viewBox="275.891 46.996 91.643 91.643" width="91.643" height="91.643" xmlns="http://www.w3.org/2000/svg">
  <path d="M 321.712 46.996 C 296.408 46.996 275.891 67.513 275.891 92.817 C 275.891 118.122 296.408 138.639 321.712 138.639 C 347.017 138.639 367.534 118.122 367.534 92.817 C 367.534 67.513 347.017 46.996 321.712 46.996 Z M 344.875 83.825 C 345.574 99.252 334.069 116.45 313.702 116.45 C 307.508 116.45 301.746 114.632 296.892 111.52 C 302.712 112.207 308.52 110.588 313.128 106.98 C 308.333 106.892 304.281 103.719 302.88 99.362 C 304.602 99.69 306.297 99.595 307.836 99.175 C 302.563 98.114 298.92 93.363 299.038 88.281 C 300.52 89.102 302.207 89.595 304.006 89.652 C 299.123 86.387 297.74 79.938 300.611 75.008 C 306.019 81.644 314.103 86.009 323.217 86.467 C 321.617 79.609 326.822 73 333.905 73 C 337.055 73 339.907 74.332 341.908 76.463 C 344.406 75.974 346.757 75.057 348.873 73.801 C 348.052 76.364 346.315 78.509 344.051 79.869 C 346.269 79.602 348.384 79.014 350.347 78.139 C 348.881 80.346 347.025 82.278 344.875 83.825 Z" style="fill: rgb(235, 235, 126);"/>
</svg>