<?xml version="1.0" encoding="utf-8"?>
<svg viewBox="389.138 71.318 93.163 93.163" width="93.163" height="93.163" xmlns="http://www.w3.org/2000/svg">
  <path d="M 435.72 71.318 C 409.995 71.318 389.138 92.175 389.138 117.9 C 389.138 143.624 409.995 164.481 435.72 164.481 C 461.444 164.481 482.301 143.624 482.301 117.9 C 482.301 92.175 461.444 71.318 435.72 71.318 Z M 452.958 136.889 C 444.799 137.448 426.625 137.448 418.477 136.889 C 409.641 136.284 408.613 131.96 408.547 117.9 C 408.613 103.812 409.653 99.515 418.477 98.91 C 426.625 98.351 444.803 98.351 452.958 98.91 C 461.798 99.515 462.822 103.839 462.892 117.9 C 462.822 131.986 461.786 136.284 452.958 136.889 Z M 427.956 108.808 L 447.043 117.884 L 427.956 126.991 L 427.956 108.808 Z" style="fill: rgb(235, 235, 126);"/>
</svg>